<svg width="42" height="40" viewBox="0 0 42 40" fill="none" xmlns="http://www.w3.org/2000/svg">
<path d="M35.3684 10.5263V16.8211C35.3684 16.8211 30.9695 16.8421 30.9474 16.8211V10.5263H24.3158C24.3158 10.5263 24.3379 6.33684 24.3158 6.31579H30.9474V0H35.3684V6.31579H42V10.5263H35.3684ZM28.7368 18.9474V12.6316H22.1053V6.31579H4.42105C1.98947 6.31579 0 8.21053 0 10.5263V35.7895C0 38.1053 1.98947 40 4.42105 40H30.9474C33.3789 40 35.3684 38.1053 35.3684 35.7895V18.9474H28.7368ZM4.42105 35.7895L11.0526 27.3684L15.4737 33.6842L22.1053 25.2632L30.9474 35.7895H4.42105Z" fill="white"/>
</svg>
