<svg width="38" height="34" viewBox="0 0 38 34" fill="none" xmlns="http://www.w3.org/2000/svg">
<path d="M16.1461 12.7449C16.4001 12.7521 16.653 12.7136 16.89 12.6316C17.127 12.5496 17.3431 12.4258 17.5256 12.2677C17.708 12.1095 17.8531 11.9201 17.9522 11.7108C18.0513 11.5015 18.1023 11.2765 18.1023 11.0492C18.1023 10.8218 18.0513 10.5968 17.9522 10.3875C17.8531 10.1782 17.708 9.98882 17.5256 9.83064C17.3431 9.67246 17.127 9.54871 16.89 9.46673C16.653 9.38475 16.4001 9.34621 16.1461 9.3534C15.6539 9.36735 15.187 9.55212 14.8443 9.86862C14.5016 10.1851 14.3099 10.6085 14.3099 11.0492C14.3099 11.4898 14.5016 11.9132 14.8443 12.2297C15.187 12.5462 15.6539 12.731 16.1461 12.7449Z" fill="white"/>
<path d="M9.5 10.2C9.5 8.8474 10.1005 7.5502 11.1695 6.59376C12.2384 5.63733 13.6883 5.10001 15.2 5.10001H26.6C28.1117 5.10001 29.5616 5.63733 30.6305 6.59376C31.6995 7.5502 32.3 8.8474 32.3 10.2V20.4C32.3 21.7526 31.6995 23.0498 30.6305 24.0063C29.5616 24.9627 28.1117 25.5 26.6 25.5H15.2C13.6883 25.5 12.2384 24.9627 11.1695 24.0063C10.1005 23.0498 9.5 21.7526 9.5 20.4V10.2ZM15.2 6.80001C14.1922 6.80001 13.2256 7.15822 12.513 7.79584C11.8004 8.43347 11.4 9.29827 11.4 10.2V20.4C11.4 21.029 11.5919 21.6206 11.9263 22.1272L18.601 16.1534C19.2103 15.6084 20.0366 15.3022 20.8981 15.3022C21.7596 15.3022 22.5859 15.6084 23.1952 16.1534L29.8718 22.1272C30.21 21.6206 30.4 21.0307 30.4 20.4V10.2C30.4 9.29827 29.9996 8.43347 29.287 7.79584C28.5744 7.15822 27.6078 6.80001 26.6 6.80001H15.2ZM28.5304 23.3291L21.8538 17.3553C21.6008 17.129 21.2577 17.0019 20.9 17.0019C20.5423 17.0019 20.1992 17.129 19.9462 17.3553L13.2696 23.3291C13.8358 23.63 14.4951 23.8 15.2 23.8H26.6C27.303 23.8 27.9642 23.6283 28.5304 23.3291Z" fill="white"/>
<path d="M22.8 28.9C24.4891 28.9 26.0053 28.2438 27.0484 27.2H14.25C12.4863 27.2 10.7948 26.5731 9.54769 25.4573C8.30057 24.3415 7.59995 22.8281 7.59995 21.25V9.79881C6.43335 10.7338 5.69995 12.0904 5.69995 13.6V21.25C5.69995 23.2789 6.60075 25.2247 8.20419 26.6594C9.80762 28.094 11.9824 28.9 14.25 28.9H22.8Z" fill="white"/>
</svg>
