<svg width="30" height="30" viewBox="0 0 30 30" fill="none" xmlns="http://www.w3.org/2000/svg">
<path d="M27.7295 14.7949L16.4092 3.48047L15.6504 2.72168C15.4775 2.54993 15.2437 2.45354 15 2.45354C14.7563 2.45354 14.5225 2.54993 14.3496 2.72168L2.27051 14.7949C2.09335 14.9714 1.95334 15.1816 1.85875 15.413C1.76415 15.6445 1.71688 15.8925 1.71973 16.1426C1.73144 17.1738 2.58984 17.9971 3.62109 17.9971H4.86621V27.5391H25.1338V17.9971H26.4053C26.9062 17.9971 27.3779 17.8008 27.7324 17.4463C27.907 17.2723 28.0453 17.0654 28.1393 16.8376C28.2333 16.6098 28.2813 16.3656 28.2803 16.1191C28.2803 15.6211 28.084 15.1494 27.7295 14.7949ZM16.6406 25.4297H13.3594V19.4531H16.6406V25.4297ZM23.0244 15.8877V25.4297H18.5156V18.75C18.5156 18.1025 17.9912 17.5781 17.3437 17.5781H12.6562C12.0088 17.5781 11.4844 18.1025 11.4844 18.75V25.4297H6.97558V15.8877H4.16309L15.0029 5.05664L15.6797 5.7334L25.8398 15.8877H23.0244Z" fill="white"/>
</svg>
