<svg width="24" height="24" viewBox="0 0 24 24" fill="none" xmlns="http://www.w3.org/2000/svg">
<style>
      svg {
        background-color: white;
          }
            }
    </style>
<path d="M6.012 18H21V4C21 2.897 20.103 2 19 2H6C4.794 2 3 2.799 3 5V19C3 21.201 4.794 22 6 22H21V20H6.012C5.55 19.988 5 19.806 5 19C5 18.899 5.009 18.809 5.024 18.727C5.136 18.151 5.608 18.01 6.012 18V18ZM8.648 7.642C9.06423 7.23107 9.62559 7.00065 10.2105 7.00065C10.7954 7.00065 11.3568 7.23107 11.773 7.642L11.997 7.861L12.22 7.642C12.6364 7.231 13.1979 7.00056 13.783 7.00056C14.3681 7.00056 14.9296 7.231 15.346 7.642C15.5526 7.84065 15.7169 8.07895 15.8291 8.34263C15.9414 8.6063 15.9992 8.88993 15.9992 9.1765C15.9992 9.46307 15.9414 9.7467 15.8291 10.0104C15.7169 10.274 15.5526 10.5124 15.346 10.711L11.998 14L8.649 10.711C8.44226 10.5125 8.27775 10.2743 8.16534 10.0106C8.05293 9.74697 7.99494 9.46333 7.99484 9.17671C7.99475 8.8901 8.05256 8.60642 8.16479 8.3427C8.27703 8.07897 8.44139 7.84064 8.648 7.642V7.642Z" fill="black"/>
</svg>
